<svg xmlns="http://www.w3.org/2000/svg" width="100%" height="auto" viewBox="0 0 430 86" version="1.1">
	<path d="M 6 42.375 L 6 81.750 9.125 82.375 C 10.844 82.719, 20.969 83, 31.625 83 L 51 83 51 76 L 51 69 37.500 69 L 24 69 24 43 L 24 17 37.500 17 L 51 17 51 10.625 C 51 4.285, 50.983 4.247, 47.875 3.625 C 46.156 3.281, 36.031 3, 25.375 3 L 6 3 6 42.375 M 72 42.375 L 72 81.750 75.125 82.375 C 76.844 82.719, 89.894 83, 104.125 83 L 130 83 130 76 L 130 69 110 69 L 90 69 90 59.500 L 90 50 103.500 50 L 117 50 117 43.561 L 117 37.123 112.456 36.441 C 109.956 36.066, 103.881 35.952, 98.956 36.188 L 90 36.616 90 26.808 L 90 17 110 17 L 130 17 130 10.625 C 130 4.285, 129.983 4.247, 126.875 3.625 C 125.156 3.281, 112.106 3, 97.875 3 L 72 3 72 42.375 M 138 42.375 L 138 81.750 141.125 82.375 C 142.844 82.719, 155.894 83, 170.125 83 L 196 83 196 76 L 196 69 175.500 69 L 155 69 155 59.500 L 155 50 168.500 50 L 182 50 182 43.588 L 182 37.176 177.941 36.490 C 175.708 36.113, 169.745 35.961, 164.691 36.152 L 155.500 36.500 155.500 27 L 155.500 17.500 175.750 17.229 L 196 16.959 196 10.604 C 196 4.287, 195.982 4.246, 192.875 3.625 C 191.156 3.281, 178.106 3, 163.875 3 L 138 3 138 42.375 M 203 9.375 C 203 15.715, 203.017 15.753, 206.125 16.375 C 207.844 16.719, 221.006 17.061, 235.375 17.136 C 249.744 17.211, 260.488 17.467, 259.250 17.706 C 257.908 17.964, 257 18.867, 257 19.945 C 257 22.099, 260.577 23, 269.125 23 L 275 23 275 13.625 L 275 4.250 271.875 3.625 C 270.156 3.281, 253.956 3, 235.875 3 L 203 3 203 9.375 M 282 42.375 L 282 81.750 285.125 82.375 C 286.844 82.719, 290.894 83, 294.125 83 L 300 83 300 66.500 L 300 50 313.500 50 L 327 50 327 43.561 L 327 37.123 322.378 36.429 C 319.837 36.048, 313.762 35.964, 308.878 36.243 L 300 36.749 300 26.874 L 300 17 320.500 17 L 341 17 341 10.631 L 341 4.262 337.250 3.642 C 335.188 3.301, 321.913 3.017, 307.750 3.011 L 282 3 282 42.375 M 348 12.375 L 348 21.750 351.125 22.375 C 352.844 22.719, 356.781 23.029, 359.875 23.063 C 364.261 23.113, 365.004 23.326, 363.250 24.031 C 361.340 24.799, 361 25.686, 361 29.909 C 361 32.675, 361.528 35.208, 362.190 35.617 C 362.844 36.022, 366.894 36.556, 371.190 36.805 L 379 37.257 379 30.128 L 379 23 372.500 23 L 366 23 366 13.631 L 366 4.262 362.250 3.642 C 360.188 3.301, 356.137 3.017, 353.250 3.011 L 348 3 348 12.375 M 402 12.375 L 402 21.750 405.125 22.375 C 406.844 22.719, 410.894 23, 414.125 23 L 420 23 420 13.625 L 420 4.250 416.875 3.625 C 415.156 3.281, 411.106 3, 407.875 3 L 402 3 402 12.375 M 49.250 17.686 L 47 18.139 47 42.933 L 47 67.727 52.773 68.952 C 55.947 69.625, 59.885 70.024, 61.523 69.838 L 64.500 69.500 64.500 43.500 L 64.500 17.500 58 17.366 C 54.425 17.292, 50.487 17.436, 49.250 17.686 M 244 28.256 C 244 34.211, 244.141 34.574, 246.928 35.808 C 248.576 36.537, 252.402 36.972, 255.678 36.802 L 261.500 36.500 261.500 30.045 C 261.500 22.549, 261.110 22.273, 250.250 22.100 L 244 22 244 28.256 M 389 29.375 C 389 35.715, 389.017 35.753, 392.125 36.375 C 393.844 36.719, 397.669 37, 400.625 37 L 406 37 406 30 L 406 23 397.500 23 L 389 23 389 29.375 M 230 42.375 C 230 48.715, 230.017 48.753, 233.125 49.375 C 234.844 49.719, 238.894 50, 242.125 50 L 248 50 248 43.625 C 248 37.285, 247.983 37.247, 244.875 36.625 C 243.156 36.281, 239.106 36, 235.875 36 L 230 36 230 42.375 M 379.250 37.262 L 375 38.284 375 43.573 C 375 48.262, 375.255 48.910, 377.250 49.294 C 378.488 49.533, 375.337 49.789, 370.250 49.864 L 361 50 361 56.375 C 361 62.715, 361.017 62.753, 364.125 63.375 C 365.844 63.719, 369.894 64, 373.125 64 L 379 64 379 57.500 L 379 51 384 51 L 389 51 389 56.875 C 389 62.655, 389.051 62.760, 392.125 63.375 C 393.844 63.719, 397.669 64, 400.625 64 L 406 64 406 57 L 406 50 399.500 50 L 393 50 393 43.631 L 393 37.262 389.250 36.642 C 384.881 35.920, 384.816 35.924, 379.250 37.262 M 217 55.875 L 217 62.750 220.125 63.375 C 221.844 63.719, 225.669 64, 228.625 64 L 234 64 234 57.125 L 234 50.250 230.875 49.625 C 229.156 49.281, 225.331 49, 222.375 49 L 217 49 217 55.875 M 203 72.375 L 203 81.750 206.125 82.375 C 207.844 82.719, 224.044 83, 242.125 83 L 275 83 275 76 L 275 69 248 69 L 221 69 221 66.625 C 221 63.839, 218.193 63, 208.875 63 L 203 63 203 72.375 M 348 72.247 L 348 81.750 351.125 82.375 C 352.844 82.719, 356.894 83, 360.125 83 L 366 83 366 74.059 C 366 68.226, 365.586 64.862, 364.810 64.383 C 364.156 63.978, 360.106 63.444, 355.810 63.195 L 348 62.743 348 72.247 M 406.250 64.262 L 402 65.284 402 73.517 L 402 81.750 405.125 82.375 C 406.844 82.719, 410.894 83, 414.125 83 L 420 83 420 73.631 L 420 64.262 416.250 63.642 C 411.881 62.920, 411.816 62.924, 406.250 64.262" stroke="none" fill="black" fill-rule="evenodd"/>
</svg>